<?xml version="1.0" encoding="UTF-8"?>
<!DOCTYPE svg PUBLIC "-//W3C//DTD SVG 1.1//EN" "http://www.w3.org/Graphics/SVG/1.1/DTD/svg11.dtd">
<!-- Creator: CorelDRAW 2020 (64-Bit) -->
<svg xmlns="http://www.w3.org/2000/svg" xml:space="preserve" width="190px" height="45px" version="1.1" style="shape-rendering:geometricPrecision; text-rendering:geometricPrecision; image-rendering:optimizeQuality; fill-rule:evenodd; clip-rule:evenodd"
viewBox="0 0 190 45"
 xmlns:xlink="http://www.w3.org/1999/xlink"
 xmlns:xodm="http://www.corel.com/coreldraw/odm/2003">
 <defs>
  <style type="text/css">
   <![CDATA[
    .fil2 {fill:#373435}
    .fil0 {fill:#CB3438}
    .fil3 {fill:#FEFEFE;fill-rule:nonzero}
    .fil1 {fill:#373435;fill-rule:nonzero}
    .fil4 {fill:#CB3438;fill-rule:nonzero}
   ]]>
  </style>
 </defs>
 <g id="Capa_x0020_1">
  <metadata id="CorelCorpID_0Corel-Layer"/>
  <g id="_2357189500640">
   <path class="fil0" d="M95.01 41.1c-5.26,0 -10.53,1.22 -15.76,3.12 -0.64,0.23 -1.12,0.01 -1.12,-0.61 0,-1.48 0,-2.96 0,-4.44l0 -3.6c0,-0.62 -1.3,-1.98 -2.28,-1.98l19.16 0 19.15 0c-0.98,0 -2.27,1.36 -2.27,1.98l0 3.6c0,1.48 0,2.96 0,4.44 0,0.62 -0.49,0.84 -1.13,0.61 -5.23,-1.9 -10.49,-3.12 -15.75,-3.12z"/>
   <path class="fil1" d="M57.95 26.8l-3.65 0 -0.39 1.43 -2.84 0 -0.5 -0.41 0 -1.27 5.13 -0.84 2.29 -1.78 0 -3.71 -2.8 -2.3 -5.87 0 -2.78 2.3 0 9.14 2.66 2.22 5.97 0 2.78 -2.3 0 -2.48zm-4.4 -4.06l-2.98 0.49 0 -1.55 0.5 -0.41 2.37 0 0.48 0.41 0 0.73 -0.37 0.33zm20.29 -1.84l0 -2.98 -5.88 0 0 2.98 0.92 0.39 -1.72 5.96 -1.79 -5.96 0.96 -0.39 0 -2.98 -6.92 0 0 2.98 1.29 0.39 3.12 10.29 5.39 0 3.3 -10.29 1.33 -0.39zm12.81 5.9l-3.65 0 -0.39 1.43 -2.83 0 -0.51 -0.41 0 -1.27 5.14 -0.84 2.28 -1.78 0 -3.71 -2.79 -2.3 -5.88 0 -2.77 2.3 0 9.14 2.65 2.22 5.98 0 2.77 -2.3 0 -2.48zm-4.39 -4.06l-2.99 0.49 0 -1.55 0.51 -0.41 2.36 0 0.49 0.41 0 0.73 -0.37 0.33zm14.53 -4.82l0 2.98 1.48 0.39 0 3.93 -4.06 -7.3 -5.86 0 0 2.98 1.49 0.39 0 6.94 -1.49 0.39 0 2.96 6.39 0 0 -2.96 -1.49 -0.39 0 -4.26 4.51 7.61 3.95 0 0 -10.29 1.48 -0.39 0 -2.98 -6.4 0zm20.66 5.64l0 -5.64 -13.6 0 0 5.64 2.89 0 0.4 -2.48 1.5 0 0 7.15 -1.66 0.39 0 2.96 7.38 0 0 -2.96 -1.68 -0.39 0 -7.15 1.5 0 0.4 2.48 2.87 0zm12.92 5.58l0 -8.84 -2.85 -2.38 -5.8 0 -2.85 2.38 0 8.84 2.95 2.44 5.58 0c1,-0.8 1.98,-1.64 2.97,-2.44zm-4.55 -7.85l0.53 0.41 0 6.08 -0.55 0.45 -2.36 0 -0.55 -0.45 0 -6.08 0.53 -0.41 2.4 0zm17.48 -1.15l-2.66 -2.22 -5.97 0 -2.66 2.22 0 3.73 2.33 1.91 4.68 0.79 0.37 0.33 0 0.92 -0.48 0.41 -2.85 0 -0.4 -1.43 -3.65 0 0 2.48 2.78 2.3 5.87 0 2.8 -2.3 0 -3.91 -2.29 -1.77 -4.7 -0.78 -0.43 -0.34 0 -0.8 0.5 -0.39 2.72 0 0.39 1.43 3.65 0 0 -2.58z"/>
   <path class="fil2" d="M114.91 33.92l7.73 0 -4.67 2.84 2.38 2.84 -7.68 0 0 -0.2 0 -3.53c0,-0.61 1.27,-1.95 2.24,-1.95z"/>
   <path class="fil3" d="M85.67 35.64c-0.36,-0.33 -0.72,-0.67 -1.08,-1.01 -0.81,0 -1.62,0 -2.43,0 -0.36,0.39 -0.72,0.79 -1.07,1.2 0,0.34 0,0.67 0,1.01 0,0.33 0,0.67 0,1.01 0.31,0.3 0.62,0.59 0.94,0.87 0.63,0.03 1.27,0.05 1.9,0.08 0.05,0.05 0.1,0.1 0.15,0.14 0,0.15 0,0.3 0,0.44 -0.06,0.08 -0.13,0.16 -0.19,0.23 -0.39,0.07 -0.78,0.15 -1.16,0.23 -0.06,-0.23 -0.11,-0.46 -0.16,-0.69 -0.5,0.09 -0.99,0.18 -1.48,0.28 0,0.45 0,0.89 0,1.34 0.37,0.31 0.75,0.61 1.12,0.91 0.8,-0.22 1.59,-0.42 2.39,-0.61 0.38,-0.43 0.76,-0.86 1.14,-1.28 0,-0.29 0,-0.59 0,-0.88 0,-0.3 0,-0.59 0,-0.89 -0.32,-0.24 -0.62,-0.48 -0.93,-0.73 -0.64,-0.07 -1.28,-0.13 -1.92,-0.2 -0.06,-0.05 -0.11,-0.1 -0.17,-0.15 0,-0.14 0,-0.27 0,-0.41 0.07,-0.07 0.14,-0.14 0.21,-0.21 0.36,-0.02 0.73,-0.05 1.1,-0.07 0.05,0.23 0.1,0.45 0.16,0.68 0.49,-0.04 0.99,-0.08 1.48,-0.11 0,-0.4 0,-0.79 0,-1.18zm5.97 -0.05c-0.38,-0.32 -0.77,-0.64 -1.15,-0.96 -1.36,0 -2.72,0 -4.08,0 0,0.44 0,0.88 0,1.33 0.2,0.05 0.4,0.1 0.6,0.15 0,0.51 0,1.01 0,1.52 0,0.5 0,1.01 0,1.52 -0.2,0.08 -0.4,0.16 -0.6,0.25 0,0.44 0,0.88 0,1.32 0.95,-0.15 1.9,-0.28 2.85,-0.4 0,-0.4 0,-0.81 0,-1.22 -0.2,-0.04 -0.4,-0.08 -0.6,-0.12 0,-0.19 0,-0.38 0,-0.57 0.61,-0.05 1.22,-0.09 1.83,-0.12 0.38,-0.34 0.77,-0.68 1.15,-1 0,-0.29 0,-0.57 0,-0.85 0,-0.29 0,-0.57 0,-0.85zm-1.85 0.43c0.07,0.06 0.14,0.11 0.21,0.17 0,0.18 0,0.37 0,0.56 -0.07,0.06 -0.14,0.12 -0.21,0.18 -0.38,0.02 -0.75,0.04 -1.13,0.05 0,-0.31 0,-0.62 0,-0.93 0.38,-0.01 0.75,-0.02 1.13,-0.03zm7.1 3.07c0,-0.58 0,-1.17 0,-1.76 0,-0.58 0,-1.17 0,-1.76 -0.38,-0.31 -0.77,-0.63 -1.16,-0.94 -0.79,0 -1.57,0 -2.36,0 -0.38,0.31 -0.77,0.63 -1.15,0.95 0,0.59 0,1.18 0,1.77 0,0.59 0,1.18 0,1.77 0.39,0.31 0.79,0.62 1.19,0.94 0.76,-0.02 1.52,-0.03 2.28,-0.02 0.4,-0.31 0.8,-0.64 1.2,-0.95zm-1.85 -3.13c0.07,0.06 0.14,0.11 0.22,0.17 0,0.4 0,0.8 0,1.2 0,0.4 0,0.8 0,1.2 -0.08,0.06 -0.15,0.12 -0.23,0.18 -0.32,0 -0.64,0 -0.96,0 -0.07,-0.06 -0.15,-0.11 -0.22,-0.17 0,-0.4 0,-0.8 0,-1.21 0,-0.4 0,-0.8 0,-1.2 0.07,-0.05 0.14,-0.11 0.22,-0.16 0.32,-0.01 0.65,-0.01 0.97,-0.01zm4.8 0.05c0.37,0.01 0.75,0.02 1.13,0.03 0.06,0.06 0.12,0.11 0.18,0.17 0,0.2 0,0.41 0,0.61 -0.06,0.05 -0.12,0.1 -0.18,0.15 -0.38,-0.01 -0.76,-0.03 -1.13,-0.04 0,-0.31 0,-0.61 0,-0.92zm0.6 4.28c0,-0.41 0,-0.82 0,-1.23 -0.2,-0.07 -0.4,-0.13 -0.6,-0.2 0,-0.27 0,-0.54 0,-0.81 0.13,0.01 0.27,0.01 0.41,0.02 0.21,0.38 0.42,0.77 0.63,1.16 0.22,0.39 0.43,0.78 0.64,1.19 0.5,0.06 1.01,0.13 1.51,0.21 0,-0.47 0,-0.93 0,-1.39 -0.14,-0.05 -0.28,-0.09 -0.42,-0.14 -0.21,-0.36 -0.41,-0.72 -0.61,-1.07 0.26,-0.22 0.53,-0.43 0.79,-0.65 0,-0.3 0,-0.59 0,-0.89 0,-0.3 0,-0.59 0,-0.89 -0.36,-0.33 -0.71,-0.65 -1.07,-0.97 -1.38,0 -2.76,0 -4.13,0 0,0.4 0,0.79 0,1.19 0.2,0.06 0.4,0.11 0.6,0.16 0,0.47 0,0.93 0,1.4 0,0.46 0,0.93 0,1.39 -0.2,0.05 -0.4,0.09 -0.6,0.13 0,0.4 0,0.79 0,1.19 0.95,0.05 1.9,0.12 2.85,0.2zm8.47 -2.61c0,-0.51 0,-1.02 0,-1.53 0,-0.51 0,-1.01 0,-1.52 -1.85,0 -3.69,0 -5.53,0 0,0.41 0,0.83 0,1.25 0,0.41 0,0.83 0,1.25 0.39,0.03 0.78,0.06 1.17,0.09 0.06,-0.38 0.11,-0.76 0.16,-1.13 0.21,0.01 0.41,0.02 0.61,0.03 0,0.56 0,1.12 0,1.68 0,0.56 0,1.12 0,1.68 -0.22,0.02 -0.45,0.05 -0.67,0.07 0,0.46 0,0.91 0,1.37 1,0.21 2,0.45 3,0.72 0,-0.51 0,-1.01 0,-1.52 -0.23,-0.12 -0.46,-0.23 -0.68,-0.34 0,-0.6 0,-1.19 0,-1.79 0,-0.59 0,-1.19 0,-1.78 0.2,0.01 0.4,0.02 0.61,0.04 0.05,0.42 0.1,0.85 0.16,1.28 0.39,0.05 0.78,0.1 1.17,0.15z"/>
   <path class="fil4" d="M90.14 4.68l0 -2.99 -5.98 0 -2.34 4.2 -2.31 -4.2 -6.4 0 0 2.99 1.48 0.39 0 6.93 -1.48 0.39 0 2.97 7.17 0 0 -2.97 -1.88 -0.39 0 -4.67 2.46 4.2 1.53 0 2.46 -4.2 0 4.67 -1.88 0.39 0 2.97 7.17 0 0 -2.97 -1.45 -0.39 0 -6.93 1.45 -0.39zm8.94 0l0 -2.99 -7.19 0 0 2.99 1.49 0.39 0 6.93 -1.49 0.39 0 2.97 12.05 0 0 -5.22 -2.89 0 -0.39 1.86 -3.24 0 0 -6.93 1.66 -0.39zm18.38 2.65l0 -5.64 -13.59 0 0 5.64 2.89 0 0.39 -2.48 1.5 0 0 7.15 -1.66 0.39 0 2.97 7.38 0 0 -2.97 -1.68 -0.39 0 -7.15 1.5 0 0.4 2.48 2.87 0z"/>
   <path class="fil2" d="M75.07 33.92l-7.74 0 4.67 2.84 -2.38 2.84 7.69 0 0 -0.2 0 -3.53c0,-0.61 -1.28,-1.95 -2.24,-1.95z"/>
  </g>
 </g>
</svg>
